<svg width="74" height="73" viewBox="0 0 74 73" fill="none" xmlns="http://www.w3.org/2000/svg">
<path d="M42.9889 62.8488C43.9709 68.8812 48.4601 71.8272 56.0356 71.8272C62.4889 71.8272 69.9241 68.1797 73.291 60.3236L72.8701 60.0431C70.9061 61.8668 68.9421 62.1474 67.3989 62.1474C64.3126 62.1474 62.068 60.0431 62.068 56.3956V24.5503C62.068 8.9784 53.0896 0 33.4494 0C16.194 0 3.42782 8.69783 3.42782 19.6403C3.42782 24.8309 7.0753 29.0395 12.5465 29.0395C18.2983 29.0395 22.3666 24.5503 21.104 15.8525H17.7371C17.7371 11.5036 21.3846 7.57552 29.8019 7.57552C38.64 7.57552 42.568 13.3273 42.568 21.1834V30.1618L21.8055 37.0359C9.88105 40.964 0.62207 44.892 0.62207 55.6941C0.62207 66.2157 7.35587 72.1078 18.9997 72.1078C29.5213 72.1078 36.8163 66.356 43.6903 57.2373L47.899 51.6258V56.5359L42.9889 62.8488ZM19.2803 51.6258C19.2803 45.874 22.5069 42.2265 30.363 39.5611L42.568 35.3525V53.0287C39.2011 58.079 34.1508 61.0251 28.8199 61.0251C22.6472 61.0251 19.2803 57.5179 19.2803 51.6258Z" fill="#9F9FAD"/>
</svg>
