<svg width="77" height="102" viewBox="0 0 77 102" fill="none" xmlns="http://www.w3.org/2000/svg">
<path d="M76.7373 69.8632C76.7373 57.097 68.7409 47.9783 55.2733 43.3489L28.4784 34.2302C21.7446 31.8453 17.9568 27.6366 17.9568 21.6043C17.9568 14.169 23.8489 8.69783 33.5287 8.69783C45.3129 8.69783 52.4675 16.1331 59.6222 28.0575L63.1294 33.669H68.8812L68.1797 0L54.5718 5.19064C55.133 5.6115 59.4819 9.67984 60.1833 10.8021V16.4136C53.5898 7.01438 44.0503 0 31.1438 0C13.187 0 0 12.4856 0 30.1618C0 42.5071 7.15466 52.187 21.0431 56.9567L45.3129 65.2337C52.8884 67.7589 57.6582 71.8272 57.6582 78.2804C57.6582 86.838 50.9244 92.4495 40.2625 92.4495C27.6366 92.4495 17.9568 85.7157 11.0827 74.0718L6.31294 66.2157H0.701438L1.40288 101.568L15.0108 94.9747C14.0288 94.1329 10.8021 91.3272 10.3813 90.766V85.7157C17.1151 94.1329 27.4964 100.586 40.964 100.586C61.0251 100.586 76.7373 88.1006 76.7373 69.8632Z" fill="#9F9FAD"/>
</svg>
