<svg width="99" height="103" viewBox="0 0 99 103" fill="none" xmlns="http://www.w3.org/2000/svg">
<path d="M61.1654 101.007C60.9783 101.007 60.8848 101.101 60.8848 101.288V101.568C60.8848 101.755 60.9783 101.849 61.1654 101.849H98.2013C98.4818 101.849 98.6221 101.755 98.6221 101.568V101.288C98.6221 101.101 98.4818 101.007 98.2013 101.007H93.8524C90.9531 101.007 88.8955 100.493 87.6797 99.4639C86.5574 98.4351 85.6222 96.7516 84.874 94.4135C80.1977 80.0107 75.8488 65.6078 71.8272 51.2049C67.8056 36.8021 63.8308 22.3057 59.9028 7.71581C59.3416 5.75179 59.3416 4.1151 59.9028 2.80575C60.4639 1.4964 61.7733 0.841723 63.8308 0.841723H72.2481C72.5286 0.841723 72.6689 0.701434 72.6689 0.420857V0.280571C72.6689 0.0935238 72.5286 0 72.2481 0H16.1331C15.759 0 15.5719 0.0935238 15.5719 0.280571V0.420857C15.5719 0.701434 15.759 0.841723 16.1331 0.841723H26.5143C28.3848 0.841723 29.3201 1.68345 29.3201 3.3669C29.3201 4.1151 29.2266 4.8633 29.0395 5.6115C28.8525 6.26617 28.5251 7.24819 28.0575 8.55754C27.2158 10.7086 26.187 13.2806 24.9712 16.2734C23.8489 19.1726 22.6798 22.1654 21.464 25.2518C20.2482 28.3381 19.0791 31.3309 17.9568 34.2302C16.8345 37.1294 15.8525 39.6546 15.0108 41.8057C13.2338 46.3884 11.4101 50.8776 9.53955 55.2733C7.76258 59.669 6.17265 63.8776 4.76978 67.8992C3.3669 71.8272 2.19784 75.5682 1.26259 79.1222C0.420863 82.5826 0 85.7624 0 88.6617C0 93.6185 1.21583 97.2193 3.64748 99.4639C6.07913 101.708 9.11869 102.831 12.7662 102.831C15.759 102.831 18.4712 102.036 20.9028 100.446C23.3345 98.7624 25.6259 96.7049 27.7769 94.2732C30.0215 91.748 32.1258 89.0826 34.0899 86.2768C36.1474 83.3775 38.2517 80.7121 40.4028 78.2804C42.5539 75.7553 44.7985 73.6977 47.1366 72.1078C49.5683 70.4243 52.187 69.5826 54.9927 69.5826C59.4819 69.5826 62.9423 70.892 65.374 73.5107C67.8056 76.1294 69.5826 79.1222 70.7049 82.4891C71.4531 84.5466 72.0143 86.5106 72.3884 88.3811C72.856 90.2516 73.3236 91.9351 73.7912 93.4315C73.9783 94.2732 74.025 95.1617 73.9315 96.097C73.9315 97.0322 73.651 97.8739 73.0898 98.6221C72.6222 99.2768 71.7805 99.838 70.5646 100.306C69.4423 100.773 67.8992 101.007 65.9351 101.007H61.1654ZM23.8489 44.0503C29.1798 44.0503 33.0611 45.2661 35.4927 47.6978C37.9244 50.0359 39.1402 53.8704 39.1402 59.2013V73.7912C37.0827 75.2876 35.0719 76.8776 33.1079 78.561C31.1438 80.2445 29.2266 81.7876 27.3561 83.1905C25.4856 84.5934 23.6618 85.7624 21.8849 86.6977C20.1079 87.5394 18.3309 87.9603 16.5539 87.9603C13.9352 87.9603 11.5503 87.1653 9.39926 85.5754C7.24819 83.8919 6.17265 81.133 6.17265 77.2984C6.17265 74.9603 6.54675 72.2948 7.29495 69.302C8.13668 66.2157 9.07193 63.1294 10.1007 60.0431C11.223 56.9567 12.3453 54.0107 13.4676 51.2049C14.5899 48.3992 15.5252 46.0143 16.2734 44.0503H23.8489ZM29.3201 10.1007C30.4424 7.29495 31.8453 5.47121 33.5287 4.62949C35.3057 3.78776 37.1762 3.32014 39.1402 3.22661V27.6366C39.1402 33.1546 37.9712 37.1294 35.633 39.5611C33.2949 41.9927 29.3669 43.2086 23.8489 43.2086H16.5539C17.9568 39.5611 19.3597 35.9136 20.7626 32.2661C22.1654 28.5251 23.4748 25.1115 24.6906 22.0251C25.9064 18.9388 26.8884 16.3201 27.6366 14.169C28.4784 12.018 29.0395 10.6619 29.3201 10.1007ZM64.392 59.9028C64.579 60.5574 64.7661 61.3524 64.9531 62.2877C65.1402 63.2229 65.2337 64.1114 65.2337 64.9531C65.3272 65.7949 65.2805 66.5898 65.0934 67.338C64.9999 67.9927 64.7193 68.4603 64.2517 68.7409C64.0646 68.8344 63.7373 68.8812 63.2697 68.8812C62.3344 68.8812 61.2121 68.6941 59.9028 68.32C58.6869 67.8524 57.0035 67.6186 54.8524 67.6186C52.2337 67.6186 49.7085 68.1797 47.2769 69.302C44.8452 70.3308 42.4136 71.6402 39.9819 73.2301V59.2013C39.9819 53.7769 41.1042 49.8956 43.3488 47.5575C45.687 45.2193 49.615 44.0503 55.133 44.0503H60.0431C60.7913 46.669 61.4927 49.3344 62.1474 52.0467C62.8956 54.6654 63.6438 57.2841 64.392 59.9028ZM55.133 43.2086C49.8021 43.2086 45.9208 41.946 43.4891 39.4208C41.151 36.8956 39.9819 32.9676 39.9819 27.6366V3.22661C43.2553 3.32014 45.687 4.02157 47.2769 5.33092C48.8668 6.64027 49.9891 8.41725 50.6438 10.6618C51.6726 14.2158 52.9819 18.8453 54.5718 24.5503C56.1618 30.2553 57.892 36.4748 59.7625 43.2086H55.133Z" fill="#9F9FAD"/>
</svg>
