<svg width="88" height="104" viewBox="0 0 88 104" fill="none" xmlns="http://www.w3.org/2000/svg">
<path d="M27.1114 52.4675V47.9783L32.1617 41.6654V0L0.737305 7.43524L5.08622 9.53955C11.2589 12.4856 12.5215 14.169 12.5215 18.9388V89.9243C12.5215 95.3955 9.99628 98.2013 5.64737 98.6221L2.42076 98.9027V103.252H41.1401V98.9027L38.0538 98.6221C34.1257 98.2013 32.1617 95.2552 32.1617 89.9243V52.187C36.6509 46.0143 41.561 43.7697 45.9099 43.7697C52.9243 43.7697 57.1329 48.1186 57.1329 55.9747V89.9243C57.1329 95.2552 55.1689 98.2013 51.2408 98.6221L48.1545 98.9027V103.252H87.0141V98.9027L83.7875 98.6221C79.4386 98.2013 76.7731 95.2552 76.7731 89.9243V53.3093C76.7731 40.1222 68.7768 32.4064 56.0106 32.4064C46.1905 32.4064 37.6329 38.9999 30.0574 48.6798L27.1114 52.4675Z" fill="#9F9FAD"/>
</svg>
