<svg width="87" height="104" viewBox="0 0 87 104" fill="none" xmlns="http://www.w3.org/2000/svg">
<path d="M59.9169 103.252H86.5716V98.9027C82.3629 97.6401 79.2766 95.1149 75.4888 89.784L52.4817 57.7985L61.881 48.6798C66.6507 43.91 75.2083 40.2625 82.2227 38.5791V34.0899H50.3774V38.8596L53.3234 39.1402C58.3738 39.5611 58.9349 43.91 54.3054 48.2589L26.3882 75.3344V71.4064L31.4386 66.4963V0L0.0141602 7.43524L4.36307 9.53955C10.5357 12.6259 11.7983 14.3093 11.7983 18.7985V89.9243C11.7983 95.3955 9.694 98.3416 5.34509 98.6221L1.69761 98.9027V103.252H41.5393V98.9027L37.8918 98.6221C33.5429 98.3416 31.4386 95.3955 31.4386 89.9243V78.2804L38.8738 71.1258L59.9169 103.252Z" fill="#9F9FAD"/>
</svg>
