<svg width="127" height="71" viewBox="0 0 127 71" fill="none" xmlns="http://www.w3.org/2000/svg">
<path d="M1.97447 70.9855H39.9924V66.6366L36.9061 66.356C33.3989 66.0754 31.7154 62.9891 31.7154 57.6582V19.7805C35.5032 14.0288 40.1327 11.5036 44.0607 11.5036C50.6542 11.5036 54.5823 15.8525 54.5823 23.7086V57.6582C54.5823 62.9891 52.8988 66.0754 49.3917 66.356L46.3053 66.6366V70.9855H82.4995V66.6366L79.4132 66.356C76.3269 66.0754 74.2225 62.9891 74.2225 57.6582V19.9208C78.2909 13.7482 82.7801 11.5036 86.5678 11.5036C93.1614 11.5036 97.0894 15.8525 97.0894 23.7086V57.6582C97.0894 62.9891 95.406 66.0754 91.8988 66.356L88.8124 66.6366V70.9855H126.971V66.6366L123.744 66.356C119.395 65.9351 116.73 62.9891 116.73 57.6582V21.0431C116.73 7.8561 109.014 0.140294 96.6685 0.140294C86.9887 0.140294 79.4132 7.01438 71.6974 16.9748L68.7513 20.7626V15.9928L72.3988 11.5036C69.5931 4.34892 62.9995 0.140294 54.1614 0.140294C44.6219 0.140294 37.6075 6.59352 29.3305 16.6942L26.6651 20.0611V15.7122L31.7154 9.25898V0L0.291016 8.27697L5.48165 10.8021C11.0932 13.6079 12.0752 15.2913 12.0752 19.7805V57.6582C12.0752 63.1294 9.54999 65.9351 5.20108 66.356L1.97447 66.6366V70.9855Z" fill="#9F9FAD"/>
</svg>
