<svg width="67" height="71" viewBox="0 0 67 71" fill="none" xmlns="http://www.w3.org/2000/svg">
<path d="M12.28 19.7805V57.6582C12.28 62.9891 10.1757 65.9351 5.40591 66.356L2.1793 66.6366V70.9855H42.021V66.6366L38.7943 66.356C34.0246 65.9351 31.9203 62.9891 31.9203 57.6582V24.9712C37.1109 13.3273 44.2656 6.7338 51.9814 7.57553V10.241H49.8771C49.1756 10.5216 48.4742 12.4856 48.4742 14.0288C48.4742 18.2374 52.2619 21.8849 57.172 21.8849C62.0821 21.8849 66.2907 18.2374 66.2907 12.205C66.2907 5.75179 61.8015 0.561151 52.9634 0.561151C43.003 0.561151 33.3231 8.9784 27.2908 25.2518V18.518C27.8519 17.1151 31.2188 11.223 31.9203 9.96042V0L0.49585 8.27697L5.68649 10.8021C11.298 13.6079 12.28 15.2913 12.28 19.7805Z" fill="#9F9FAD"/>
</svg>
